<svg width="25" height="24" viewBox="0 0 25 24" fill="none" xmlns="http://www.w3.org/2000/svg">
<path d="M20.5 10.6101C20.5 15.3649 16.47 19.2202 11.5 19.2202C10.9157 19.2208 10.3329 19.1668 9.75891 19.0591C9.34573 18.9814 9.13906 18.9426 8.99489 18.9647C8.85073 18.9867 8.64618 19.0955 8.23742 19.3128C7.08117 19.9277 5.7328 20.1449 4.43598 19.9037C4.92885 19.2976 5.26545 18.5702 5.41404 17.7903C5.50404 17.3135 5.281 16.85 4.94702 16.5108C3.42994 14.9703 2.5 12.8946 2.5 10.6101C2.5 5.85528 6.53004 2 11.5 2C16.47 2 20.5 5.85528 20.5 10.6101Z" fill="#ffffff" stroke="#ffffff" stroke-width="0.5" stroke-linejoin="round"/>
<path d="M11.5 16.2617C11.5 19.1674 13.9628 21.5234 17 21.5234C17.3571 21.5238 17.7132 21.4908 18.064 21.425C18.3165 21.3775 18.4428 21.3538 18.5309 21.3673C18.619 21.3807 18.744 21.4472 18.9938 21.58C19.7004 21.9558 20.5244 22.0885 21.3169 21.9411C21.0157 21.5707 20.81 21.1262 20.7192 20.6496C20.6642 20.3582 20.8005 20.075 21.0046 19.8677C21.9317 18.9263 22.5 17.6578 22.5 16.2617C22.5 13.356 20.0372 11 17 11C13.9628 11 11.5 13.356 11.5 16.2617Z" fill="#ffffff" stroke="#2F2262" stroke-width="0.5" stroke-linejoin="round"/>
</svg>
