<svg width="28" height="28" viewBox="0 0 28 28" fill="none" xmlns="http://www.w3.org/2000/svg">
<g clip-path="url(#clip0_34_269)">
<path d="M27.9996 13.187V14.8268C27.9721 15.0197 27.9583 15.2264 27.9308 15.4193C27.6002 18.3819 26.4846 21 24.5013 23.2461C22.339 25.6988 19.6396 27.2283 16.403 27.7933C15.8796 27.8898 15.3425 27.9449 14.8191 28.0138H13.1801C13.0975 28 13.0011 27.9724 12.9185 27.9587C12.3125 27.876 11.6927 27.8209 11.0867 27.6831C7.71236 26.9528 4.95781 25.2165 2.87813 22.4606C0.330169 19.0846 -0.523741 15.2815 0.316397 11.1339C1.00503 7.75787 2.76795 5.00197 5.49495 2.8937C8.41477 0.661417 11.7478 -0.275591 15.3976 0.0688972C18.3587 0.358267 20.9618 1.50197 23.2067 3.47244C25.672 5.64961 27.2008 8.35039 27.7793 11.5886C27.8757 12.1122 27.9308 12.6496 27.9996 13.1732V13.187ZM14.0065 26.0984C20.6587 26.0984 26.099 20.6693 26.0852 14C26.0852 7.34449 20.6725 1.92913 14.0203 1.91535C7.36804 1.90157 1.92781 7.33071 1.92781 14C1.92781 20.6555 7.35427 26.0984 14.0065 26.0984Z" fill="#2F2260"/>
<path d="M9.88949 13.0492C9.99967 13.0492 10.0961 13.0492 10.2063 13.0492C13.5255 13.0492 16.8585 13.0492 20.1777 13.0492C20.3155 13.0492 20.4532 13.0492 20.5909 13.063C21.073 13.1181 21.4173 13.5177 21.4173 14C21.4173 14.4823 21.073 14.8819 20.5909 14.937C20.4532 14.9508 20.3017 14.9508 20.1502 14.9508C16.831 14.9508 13.5117 14.9508 10.2063 14.9508C10.0961 14.9508 9.99967 14.9508 9.82062 14.9508C9.9308 15.061 9.98589 15.1437 10.0548 15.2126C11.1566 16.315 12.2722 17.4173 13.374 18.5472C13.553 18.7264 13.6908 19.002 13.7321 19.25C13.8009 19.6358 13.6081 19.9528 13.25 20.1594C12.9057 20.3524 12.5614 20.3248 12.2446 20.1043C12.1344 20.0354 12.0518 19.939 11.9554 19.8425C10.2889 18.1752 8.62239 16.5079 6.95589 14.8406C6.36366 14.248 6.36366 13.7657 6.95589 13.1732C8.63617 11.4921 10.3164 9.81102 11.9967 8.12992C12.2722 7.85433 12.5752 7.66142 12.9884 7.75787C13.677 7.90945 13.9662 8.70866 13.553 9.25984C13.4842 9.34252 13.4153 9.4252 13.3327 9.50787C12.2446 10.5965 11.1566 11.685 10.0685 12.7736C9.99967 12.8425 9.91703 12.8976 9.83439 12.9528C9.84817 12.9803 9.86194 13.0217 9.87571 13.0492H9.88949Z" fill="#2F2260"/>
</g>
<defs>
<clipPath id="clip0_34_269">
<rect width="28" height="28" fill="white"/>
</clipPath>
</defs>
</svg>
