<svg width="27" height="23" viewBox="0 0 27 23" fill="none" xmlns="http://www.w3.org/2000/svg">
<g clip-path="url(#clip0_33_72)">
<path d="M20.3635 21.3159C20.8363 21.2357 21.3255 21.2036 21.782 21.0432C23.7222 20.4017 24.9124 19.0865 25.1896 17.0816C25.4668 15.1088 24.7005 13.4888 23.0048 12.4142C21.2765 11.3075 19.4668 11.3556 17.6896 12.3982C17.5591 12.4784 17.445 12.5586 17.3309 12.6548C17.1678 12.7992 17.1352 12.9916 17.2657 13.1681C17.3961 13.3445 17.5755 13.3766 17.7711 13.2803C17.8526 13.2322 17.9341 13.1681 18.0157 13.1199C19.4015 12.1576 21.3581 12.1736 22.7276 13.152C24.1787 14.1946 24.782 15.9428 24.2765 17.6109C23.7711 19.2629 22.3037 20.3696 20.5102 20.4819C18.2928 20.6102 16.3037 18.8298 16.2385 16.6485C16.2059 15.8305 16.4178 15.0607 16.8255 14.3389C16.9722 14.0823 16.907 13.8738 16.7113 13.7615C16.4994 13.6492 16.2874 13.7294 16.1407 13.97C15.7657 14.5955 15.5374 15.2692 15.4722 15.9909C15.195 18.8138 17.4613 21.2678 20.3635 21.3159ZM20.7385 16.6325C20.7385 16.3438 20.7385 16.0872 20.7385 15.8466C20.7385 15.2371 20.7385 14.6276 20.7385 14.0021C20.7385 13.7775 20.6244 13.6171 20.3798 13.6011C20.1515 13.5851 20.0048 13.7134 19.9559 13.97C19.9559 14.0181 19.9559 14.0662 19.9559 14.1304C19.9559 15.0446 19.9559 15.9588 19.9559 16.8731C19.9559 17.274 20.0863 17.4024 20.4939 17.4024C21.4396 17.4024 22.3689 17.4024 23.3146 17.4024C23.3798 17.4024 23.445 17.4024 23.4939 17.4024C23.6896 17.3703 23.82 17.258 23.8363 17.0655C23.8526 16.857 23.7548 16.7127 23.5428 16.6646C23.445 16.6325 23.3309 16.6325 23.2331 16.6325C22.4178 16.6325 21.6026 16.6325 20.7385 16.6325Z" fill="white"/>
<path d="M27 17.0495C26.9022 17.4986 26.8207 17.9637 26.6902 18.3968C26.462 19.1667 26.087 19.8563 25.5815 20.4979C25.3859 20.7385 25.1739 20.8027 24.9783 20.6583C24.7663 20.5139 24.7663 20.2894 24.9783 20.0167C25.875 18.8619 26.2826 17.5788 26.2337 16.1192C26.1196 13.3124 23.7228 10.8905 20.8859 10.698C18.1141 10.5056 15.7337 12.0614 14.8207 14.6437C13.9076 17.242 15.1793 20.3215 17.6902 21.5404C19.7609 22.5349 21.7826 22.4226 23.7065 21.1715C23.7554 21.1395 23.788 21.1074 23.837 21.0914C24.0652 20.963 24.2772 21.0112 24.3913 21.1876C24.5217 21.364 24.4891 21.6046 24.2609 21.7329C23.788 22.0056 23.3152 22.3264 22.8098 22.5028C20.3967 23.3849 18.163 23.016 16.125 21.4603C15.9946 21.364 15.8152 21.2999 15.6522 21.2999C11.1359 21.2999 6.61957 21.2999 2.10326 21.2999C1.41848 21.2999 0.847826 21.1074 0.407609 20.5621C0.0978261 20.2252 0 19.7922 0 19.3271C0 15.3654 0 11.3877 0 7.42608C0 7.00907 0 6.59205 0 6.17503C0 5.87029 0.163043 5.69386 0.391304 5.69386C0.63587 5.69386 0.782609 5.87029 0.782609 6.17503C0.782609 6.46374 0.782609 6.75244 0.782609 7.05718H23.2989L23.3315 7.0251C23.3315 6.09484 23.3478 5.18061 23.3315 4.25035C23.3152 3.70502 22.8913 3.33612 22.337 3.28801C22.0435 3.27197 21.75 3.28801 21.4239 3.28801C21.4239 3.64086 21.4239 3.96165 21.4239 4.28243C21.3913 5.08438 20.788 5.69386 19.9402 5.77406C19.2391 5.83821 18.5217 5.32497 18.3424 4.60321C18.2935 4.41074 18.2935 4.20223 18.2935 4.00976C18.2935 3.78522 18.2935 3.54463 18.2935 3.28801H16.2228C16.2228 3.67294 16.2554 4.05788 16.2228 4.42678C16.1413 5.19665 15.4728 5.75802 14.6902 5.77406C13.9239 5.77406 13.2391 5.21269 13.1413 4.45886C13.1087 4.18619 13.125 3.89749 13.1087 3.60879C13.1087 3.51255 13.1087 3.40028 13.1087 3.28801H11.0707C11.0707 3.59275 11.0707 3.88145 11.0707 4.17015C11.038 5.0523 10.5163 5.64575 9.68478 5.75802C8.83696 5.87029 8.00543 5.21269 7.95652 4.36262C7.94022 4.00976 7.95652 3.6569 7.95652 3.28801H5.90217C5.90217 3.62483 5.90217 3.96165 5.90217 4.28243C5.86957 4.95607 5.44565 5.50139 4.79348 5.69386C4.15761 5.88633 3.48913 5.66179 3.08152 5.1325C2.83696 4.82775 2.77174 4.45886 2.77174 4.08996C2.77174 3.83333 2.77174 3.57671 2.77174 3.23989C2.34783 3.27197 1.94022 3.23989 1.56522 3.35216C1.125 3.46444 0.913043 3.81729 0.847826 4.25035C0.847826 4.31451 0.847826 4.37866 0.847826 4.42678C0.847826 4.71548 0.701087 4.89191 0.456522 4.89191C0.211957 4.89191 0.0652174 4.71548 0.048913 4.42678C0.0326087 3.3682 0.766304 2.58229 1.84239 2.50209C2.13587 2.48605 2.42935 2.50209 2.78804 2.50209C2.78804 2.10112 2.77174 1.73222 2.78804 1.37936C2.80435 0.609484 3.50544 0 4.30435 0C5.11957 0 5.80435 0.625523 5.85326 1.41144C5.86957 1.7643 5.85326 2.11715 5.85326 2.48605H7.90761C7.90761 2.13319 7.8913 1.79637 7.90761 1.47559C7.94022 0.834031 8.28261 0.368898 8.88587 0.128312C9.48913 -0.112273 10.0598 0 10.5489 0.449093C10.9076 0.769875 11.038 1.18689 11.038 1.66806C11.038 1.94073 11.038 2.21339 11.038 2.50209H13.0761C13.0761 2.18131 13.0761 1.86053 13.0761 1.55579C13.1087 0.85007 13.5326 0.288703 14.1685 0.0962343C14.8043 -0.0962343 15.4728 0.0962343 15.8804 0.625523C16.125 0.930265 16.2065 1.28312 16.2065 1.66806C16.2065 1.94073 16.2065 2.21339 16.2065 2.50209H18.2609C18.2609 2.13319 18.2283 1.7643 18.2609 1.41144C18.3261 0.609484 19.0109 0 19.8098 0.0160391C20.6413 0.0160391 21.3261 0.657601 21.3587 1.47559C21.375 1.81241 21.3587 2.14923 21.3587 2.51813C21.6033 2.51813 21.8152 2.51813 22.0272 2.51813C23.3152 2.51813 24.0652 3.27197 24.0652 4.53905C24.0652 6.62413 24.0652 8.72524 24.0652 10.8103C24.0652 11.0188 24.1304 11.1471 24.2935 11.2594C25.8098 12.3982 26.6739 13.9059 26.9022 15.7664C26.9022 15.8145 26.9348 15.8626 26.9511 15.9107V17.0495H27ZM15.1467 20.53C14.2663 19.4393 13.8098 18.2204 13.712 16.857H10.1413V20.53H15.1467ZM4.64674 16.0551V12.3661H0.815217V16.0551H4.64674ZM9.32609 16.0551V12.3501C9.22826 12.3501 9.16304 12.3501 9.08152 12.3501C7.97283 12.3501 6.84783 12.3501 5.73913 12.3501C5.51087 12.3501 5.46196 12.4142 5.46196 12.6227C5.46196 13.6813 5.46196 14.7399 5.46196 15.8145C5.46196 15.8947 5.46196 15.9749 5.47826 16.0711H9.32609V16.0551ZM10.1413 7.87517V11.5481H13.9891V7.87517H10.1413ZM13.9728 12.3661H10.1413V16.0551H13.663C13.9891 14.8361 14.0707 13.6172 13.9728 12.3661ZM0.815217 7.87517V11.5481H4.66304V7.87517H0.815217ZM5.47826 7.87517V11.5481H9.32609V7.87517H5.47826ZM9.30978 20.53V16.857H5.47826V20.53H9.30978ZM0.798913 16.857C0.798913 17.7713 0.798913 18.6695 0.798913 19.5676C0.798913 20.0969 1.23913 20.5139 1.77717 20.53C2.70652 20.546 3.63587 20.53 4.56522 20.53C4.58152 20.53 4.61413 20.5139 4.63043 20.4979V16.841H0.798913V16.857ZM14.8043 11.5642C15.1467 11.5642 15.4402 11.5642 15.75 11.5642C15.8641 11.5642 15.9946 11.516 16.0761 11.4519C16.8098 10.8584 17.6087 10.4414 18.5217 10.1688C18.5707 10.1688 18.6196 10.1367 18.6522 10.1206V7.89121H14.8043V11.5802V11.5642ZM19.4674 9.97629C20.8207 9.8159 22.0924 10.0404 23.3152 10.6018V7.87517H19.4674V9.96025V9.97629ZM13.8587 2.90307C13.8587 3.32008 13.8587 3.75314 13.8587 4.17015C13.8587 4.66736 14.1848 5.00418 14.625 5.02022C15.0815 5.02022 15.4239 4.66736 15.4239 4.17015C15.4239 3.32008 15.4239 2.48605 15.4239 1.63598C15.4239 1.13877 15.0978 0.801953 14.6576 0.785914C14.2011 0.785914 13.875 1.13877 13.8587 1.63598C13.8587 2.053 13.8587 2.48605 13.8587 2.90307ZM5.05435 2.90307C5.05435 2.48605 5.05435 2.053 5.05435 1.63598C5.05435 1.13877 4.72826 0.801953 4.28804 0.785914C3.84783 0.785914 3.50544 1.10669 3.50544 1.58787C3.50544 2.47001 3.50544 3.35216 3.50544 4.23431C3.50544 4.69944 3.86413 5.03626 4.30435 5.02022C4.74457 5.02022 5.05435 4.66736 5.07065 4.20223C5.07065 3.76918 5.07065 3.33612 5.07065 2.90307H5.05435ZM20.6087 2.90307C20.6087 2.48605 20.6087 2.053 20.6087 1.63598C20.6087 1.13877 20.2826 0.801953 19.8424 0.785914C19.4022 0.785914 19.0598 1.10669 19.0598 1.58787C19.0598 2.47001 19.0598 3.35216 19.0598 4.23431C19.0598 4.69944 19.4185 5.03626 19.8587 5.02022C20.2989 5.02022 20.6087 4.66736 20.625 4.20223C20.625 3.76918 20.625 3.33612 20.625 2.90307H20.6087ZM8.69022 2.90307C8.69022 3.33612 8.69022 3.76918 8.69022 4.20223C8.69022 4.6834 9.0163 5.02022 9.45652 5.02022C9.89674 5.02022 10.2391 4.69944 10.2391 4.23431C10.2391 3.35216 10.2391 2.47001 10.2391 1.58787C10.2391 1.12273 9.89674 0.785914 9.45652 0.785914C9.0163 0.785914 8.69022 1.12273 8.69022 1.60391C8.69022 2.03696 8.69022 2.47001 8.69022 2.90307ZM14.8043 12.8473C14.9348 12.6548 15.0326 12.5265 15.1467 12.3661H14.8043V12.8473Z" fill="white"/>
<path d="M20.3634 21.3159C17.4775 21.2838 15.1949 18.8138 15.472 15.9909C15.5373 15.2692 15.7655 14.5955 16.1405 13.97C16.2873 13.7294 16.4992 13.6492 16.7112 13.7615C16.9231 13.8738 16.972 14.0983 16.8253 14.3389C16.4014 15.0607 16.2057 15.8145 16.2384 16.6485C16.3199 18.8298 18.2927 20.6102 20.5101 20.4819C22.3036 20.3856 23.771 19.2629 24.2764 17.6109C24.7818 15.9428 24.1623 14.1946 22.7275 13.152C21.3579 12.1736 19.4014 12.1576 18.0155 13.1199C17.934 13.1681 17.8688 13.2322 17.771 13.2803C17.5753 13.3766 17.396 13.3605 17.2655 13.1681C17.1351 12.9916 17.1677 12.7992 17.3307 12.6548C17.4449 12.5586 17.559 12.4623 17.6894 12.3982C19.4666 11.3556 21.2764 11.3075 23.0047 12.4142C24.7003 13.4888 25.4666 15.1088 25.1894 17.0816C24.9123 19.0704 23.722 20.4017 21.7818 21.0432C21.3253 21.1876 20.8362 21.2197 20.3634 21.3159Z" fill="white"/>
<path d="M20.7396 16.6485C21.5875 16.6485 22.4027 16.6485 23.2342 16.6485C23.332 16.6485 23.4462 16.6485 23.544 16.6806C23.7559 16.7287 23.8538 16.8731 23.8375 17.0816C23.8212 17.2741 23.6907 17.3863 23.4951 17.4184C23.4299 17.4184 23.3646 17.4184 23.3157 17.4184C22.3701 17.4184 21.4407 17.4184 20.4951 17.4184C20.0875 17.4184 19.957 17.2901 19.957 16.8891C19.957 15.9749 19.957 15.0607 19.957 14.1464C19.957 14.0983 19.957 14.0502 19.957 13.9861C19.9896 13.7294 20.1527 13.6011 20.3809 13.6172C20.6255 13.6332 20.7396 13.7936 20.7396 14.0181C20.7396 14.6276 20.7396 15.2371 20.7396 15.8626C20.7396 16.1192 20.7396 16.3598 20.7396 16.6485Z" fill="white"/>
</g>
<defs>
<clipPath id="clip0_33_72">
<rect width="27" height="23" fill="white"/>
</clipPath>
</defs>
</svg>
