<svg width="24" height="24" viewBox="0 0 24 24" fill="none" xmlns="http://www.w3.org/2000/svg">
<g clip-path="url(#clip0_33_77)">
<path d="M0 8.15719C0.0509825 7.88953 0.0892193 7.62187 0.152947 7.35422C0.395114 6.38555 0.853956 5.53159 1.54222 4.81784C1.87361 4.47371 2.21774 4.12957 2.56187 3.78544C3.13542 3.22464 3.9384 3.22464 4.51195 3.78544C5.74827 5.00902 6.97185 6.2326 8.19543 7.46893C8.78173 8.05523 8.78173 8.8582 8.19543 9.4445C7.7111 9.92883 7.22677 10.4132 6.74243 10.9102C6.29634 11.3563 6.24535 11.7642 6.60223 12.2868C6.81891 12.6182 7.06107 12.9368 7.29049 13.2682C7.48168 13.5486 7.45619 13.829 7.22677 13.9947C7.01009 14.1476 6.72969 14.0839 6.5385 13.829C6.27084 13.4594 6.00319 13.0897 5.76102 12.7201C5.26394 11.9554 5.35316 11.0122 6.00319 10.3622C6.50027 9.8651 6.99734 9.36802 7.49442 8.87094C7.78757 8.56505 7.80032 8.38661 7.49442 8.09346C6.30908 6.90812 5.12374 5.72278 3.92565 4.52469C3.64525 4.24429 3.45406 4.24429 3.17366 4.52469C2.75305 4.95804 2.28147 5.3659 1.92459 5.85023C0.790228 7.37971 0.61179 9.03664 1.46575 10.7446C3.14817 14.1476 5.44238 17.0664 8.38662 19.4626C9.91609 20.7116 11.5603 21.7568 13.3319 22.6107C15.0143 23.4137 17.0409 23.1078 18.4174 21.846C18.7998 21.5019 19.1567 21.1195 19.5135 20.7626C19.7302 20.5459 19.7302 20.3293 19.5135 20.0998C18.29 18.8763 17.0791 17.6527 15.8555 16.4418C15.6261 16.2124 15.4222 16.2252 15.18 16.4546C14.683 16.9389 14.1986 17.436 13.7015 17.9331C12.9623 18.6596 12.0574 18.7615 11.1907 18.1752C10.6681 17.8184 10.1583 17.436 9.66118 17.0664C9.39352 16.8624 9.34254 16.5693 9.52098 16.3526C9.69942 16.1359 9.95433 16.1232 10.2347 16.3271C10.7318 16.6968 11.2289 17.0664 11.726 17.4105C12.1848 17.7291 12.6182 17.6909 13.0133 17.2958C13.5104 16.8115 13.9947 16.3144 14.4918 15.8173C15.129 15.18 15.9065 15.18 16.5438 15.8173C17.7546 17.0154 18.9527 18.2262 20.1508 19.4243C20.7626 20.0361 20.7626 20.8263 20.1508 21.4381C19.7557 21.8332 19.3606 22.2411 18.94 22.6235C17.2321 24.1147 14.8232 24.4206 12.7966 23.4137C7.32873 20.6861 3.30112 16.5311 0.560807 11.0887C0.280404 10.5279 0.101965 9.94158 0.0382369 9.32979C0.0382369 9.29155 0.0127456 9.24057 0 9.20233C0 8.8582 0 8.51407 0 8.16994L0 8.15719Z" fill="white"/>
<path d="M14.3517 0C14.7596 0.0637281 15.1674 0.101965 15.5753 0.178439C19.7431 0.943176 23.0825 4.28253 23.8217 8.45035C23.9237 9.03664 23.9619 9.62294 24.0002 10.222C24.0256 10.5789 23.8345 10.7955 23.5413 10.8083C23.2482 10.8083 23.0697 10.6044 23.0697 10.2347C22.9805 6.29634 20.6353 2.94424 16.9518 1.52947C15.9194 1.13436 14.8488 0.955921 13.7527 0.93043C13.4595 0.93043 13.2811 0.81572 13.2301 0.599044C13.1409 0.31864 13.2938 0.152947 13.4978 0C13.7782 0 14.0586 0 14.3517 0Z" fill="white"/>
<path d="M13.9307 2.81679C17.5122 2.90601 20.6221 5.68455 21.0937 9.29156C21.1319 9.59746 21.1574 9.9161 21.1702 10.222C21.1829 10.5789 20.9917 10.7955 20.6986 10.7955C20.4182 10.7955 20.2397 10.5916 20.227 10.2475C20.0995 7.60914 18.8887 5.67181 16.5562 4.43548C15.715 3.98938 14.7974 3.7982 13.8542 3.75996C13.7777 3.75996 13.7012 3.75996 13.6248 3.75996C13.3826 3.73447 13.2042 3.55603 13.1914 3.32661C13.1914 3.08445 13.3444 2.86777 13.5993 2.84228C13.6885 2.84228 13.765 2.84228 13.9179 2.84228L13.9307 2.81679Z" fill="white"/>
<path d="M13.7394 5.63356C16.3012 5.73553 18.2641 7.69835 18.3533 10.1837C18.3533 10.3494 18.3023 10.5534 18.1876 10.6681C18.0856 10.7573 17.8689 10.7828 17.716 10.7573C17.5248 10.7191 17.4483 10.5534 17.4228 10.3494C17.3591 9.90334 17.3336 9.43175 17.1679 9.02389C16.5689 7.49442 15.409 6.69145 13.7776 6.57674C13.7139 6.57674 13.6501 6.57674 13.5864 6.57674C13.3697 6.55124 13.204 6.37281 13.1913 6.15613C13.1786 5.93945 13.306 5.73553 13.5227 5.68454C13.6119 5.65905 13.7011 5.65905 13.7394 5.65905V5.63356Z" fill="white"/>
<path d="M13.7526 8.46309C14.7213 8.50133 15.4988 9.27881 15.537 10.2602C15.537 10.5661 15.3841 10.7828 15.1037 10.7955C14.836 10.821 14.6448 10.6426 14.6066 10.3494C14.5174 9.71216 14.2752 9.46999 13.6634 9.39352C13.3575 9.35528 13.1791 9.15135 13.2046 8.88369C13.23 8.61604 13.434 8.45034 13.7526 8.46309Z" fill="white"/>
<path d="M8.31035 14.7594C8.57801 14.7594 8.7692 14.9506 8.78194 15.2055C8.78194 15.4732 8.57801 15.6899 8.3231 15.6899C8.06819 15.6899 7.86426 15.4732 7.86426 15.231C7.86426 14.9761 8.06819 14.7722 8.3231 14.7594H8.31035Z" fill="white"/>
</g>
<defs>
<clipPath id="clip0_33_77">
<rect width="24" height="24" fill="white"/>
</clipPath>
</defs>
</svg>
