<svg width="26" height="28" viewBox="0 0 26 28" fill="none" xmlns="http://www.w3.org/2000/svg">
<g clip-path="url(#clip0_34_182)">
<path d="M21.1588 28C20.5046 27.8016 19.9942 27.3651 19.5494 26.8493C19.4316 26.7038 19.3007 26.6641 19.1306 26.6641C16.2127 26.6641 13.3078 26.6641 10.3898 26.6641C10.259 26.6641 10.1281 26.6641 10.0103 26.6377C9.77482 26.5848 9.63088 26.3599 9.63088 26.0954C9.63088 25.8309 9.81407 25.6325 10.0496 25.5928C10.1543 25.5796 10.272 25.5928 10.3767 25.5928C12.9807 25.5928 15.5977 25.5928 18.2016 25.5928C18.3063 25.5928 18.3979 25.5928 18.5549 25.5928C18.4764 25.4606 18.411 25.3547 18.3455 25.2489C17.2595 23.556 16.723 21.6778 16.7622 19.6145C16.7622 19.1119 16.9062 18.9532 17.3641 18.8739C17.7044 18.8077 18.0315 18.7152 18.4371 18.6226C17.7174 17.8158 16.9454 17.2338 16.0687 16.7841C16.0295 17.1545 16.0164 17.5116 15.964 17.8555C15.7809 18.9136 15.2444 19.7733 14.6032 20.5536C14.3808 20.8181 14.0929 20.8049 13.8181 20.5272C12.9545 19.6278 12.0909 18.7284 11.2273 17.829C11.1618 17.7629 11.1095 17.71 11.031 17.6306C10.9525 17.6967 10.887 17.7629 10.8216 17.829C9.97109 18.7152 9.13365 19.6013 8.28312 20.4743C7.92982 20.8446 7.65504 20.8314 7.341 20.4214C6.73908 19.641 6.22877 18.8077 6.07175 17.7893C6.01941 17.4719 6.00632 17.1412 5.98015 16.7709C5.87547 16.8238 5.78388 16.8767 5.69228 16.9296C3.86037 17.9613 2.63038 19.5749 1.8191 21.5853C1.45272 22.4979 1.17794 23.4502 1.034 24.4289C0.903151 25.2622 1.06017 25.5135 1.84527 25.5531C2.9575 25.606 4.06973 25.5796 5.18196 25.5796C5.31281 25.5796 5.44366 25.5796 5.56143 25.5796C5.82313 25.606 6.01941 25.8177 6.03249 26.0954C6.03249 26.3599 5.86239 26.598 5.5876 26.6377C5.54834 26.6377 5.50909 26.6377 5.45675 26.6377C4.21367 26.6377 2.97059 26.6245 1.74059 26.6112C1.63591 26.6112 1.51815 26.5848 1.41347 26.5716C0.379749 26.3599 -0.169824 25.6722 0.00028217 24.5612C0.66762 20.1965 2.59112 16.837 6.67366 15.2896C6.69983 15.2896 6.73908 15.2631 6.76525 15.2499C6.77834 15.2499 6.79142 15.2234 6.80451 15.2102C6.56898 14.906 6.32036 14.6018 6.09792 14.2844C5.20813 13.0146 4.67165 11.6259 4.76324 9.99905C4.76324 9.78743 4.72399 9.6684 4.5408 9.54936C3.44165 8.80869 3.49399 7.11573 4.65856 6.45442C4.78941 6.37506 4.84175 6.2957 4.86792 6.15021C5.31281 3.35947 6.80451 1.52102 9.30375 0.634861C9.38227 0.608408 9.46078 0.529051 9.50003 0.449693C9.67014 0.145489 9.91875 0 10.259 0C10.8216 0 11.3974 0 11.96 0C12.3133 0 12.575 0.171941 12.732 0.515824C12.7713 0.595182 12.8629 0.674539 12.9545 0.700992C15.2182 1.5607 16.6314 3.24043 17.1548 5.75342C17.2333 6.13699 17.3249 6.40151 17.6651 6.65281C18.6334 7.36703 18.5287 8.92773 17.5081 9.60227C17.3903 9.68163 17.3118 9.74776 17.3249 9.90647C17.4427 11.9698 16.6314 13.6363 15.3621 15.0912C15.3229 15.1308 15.2967 15.1705 15.2444 15.2367C16.8669 15.8054 18.2539 16.718 19.4316 18.1332C19.9419 17.6835 20.4391 17.2603 20.9233 16.7974C21.3027 16.4402 21.5121 16.427 21.8785 16.7974C22.8075 17.7761 23.8674 18.53 25.1628 18.8342C25.2021 18.8342 25.2283 18.8607 25.2675 18.8607C26.0003 18.9003 26.0134 19.231 26.0134 19.8129C26.0395 22.2995 25.1498 24.4025 23.7104 26.2806C23.5795 26.4525 23.4356 26.6245 23.2917 26.7964C22.8206 27.3387 22.3103 27.8016 21.6299 28H21.1719H21.1588ZM5.79696 9.86679C5.79696 10.171 5.79696 10.4487 5.79696 10.7133C5.81005 10.9513 5.82313 11.2026 5.90164 11.4407C6.52972 13.676 7.89057 15.2102 9.90567 16.0699C10.5076 16.3344 11.1487 16.4138 11.7768 16.2022C14.0013 15.4747 15.4406 13.8876 16.1734 11.5598C16.3435 11.0175 16.3435 10.4355 16.3043 9.86679H5.79696ZM17.7829 19.9188C17.809 20.3023 17.8221 20.6594 17.8614 21.0165C18.1493 23.1856 19.1699 24.9315 20.6092 26.4261C21.2373 27.0742 21.5383 27.0609 22.1664 26.4261C23.3833 25.1828 24.2861 23.7147 24.7441 21.9556C24.9142 21.2943 24.9796 20.6065 24.9796 19.9055C23.5795 19.5749 22.4281 18.821 21.3943 17.829C20.3606 18.8342 19.1961 19.5749 17.796 19.9188H17.7829ZM11.031 8.76901C12.8236 8.76901 14.6163 8.76901 16.4089 8.76901C16.5136 8.76901 16.6183 8.76901 16.7099 8.76901C17.0894 8.72933 17.3511 8.37222 17.2856 7.96221C17.2333 7.6051 16.9847 7.36703 16.5921 7.36703C12.876 7.36703 9.1729 7.36703 5.45675 7.36703C5.40441 7.36703 5.33898 7.36703 5.28664 7.39348C4.98569 7.45961 4.78941 7.72414 4.77633 8.05479C4.77633 8.50449 5.05111 8.78224 5.54834 8.78224C7.38025 8.78224 9.19907 8.78224 11.031 8.78224V8.76901ZM9.42152 1.77232C7.38025 2.43363 6.00632 4.62919 5.91473 6.25602C5.95398 6.25602 5.99324 6.28247 6.03249 6.28247C6.88302 6.28247 7.74663 6.28247 8.59716 6.28247C8.75418 6.28247 8.79344 6.20312 8.84578 6.07086C9.31684 4.69532 9.40843 3.25366 9.42152 1.78555V1.77232ZM12.7844 1.82522C12.7713 3.29334 12.8891 4.735 13.3732 6.12376C13.3994 6.20312 13.5302 6.26925 13.6218 6.26925C14.4069 6.26925 15.2051 6.26925 15.9902 6.26925C16.0556 6.26925 16.1211 6.25602 16.1734 6.2428C15.9248 4.08692 14.3546 2.32782 12.7713 1.82522H12.7844ZM10.4422 1.09778C10.4422 2.84365 10.4029 4.57629 9.86641 6.2428H12.3526C11.7899 4.54983 11.7768 2.83042 11.7768 1.09778H10.4552H10.4422ZM9.89258 17.3C9.31684 16.9957 8.71493 16.7312 8.17844 16.3609C7.83823 16.1228 7.55036 16.1228 7.22323 16.2683C7.15781 16.2948 7.09238 16.3873 7.0793 16.4535C7.0793 16.837 7.04004 17.2206 7.0793 17.5909C7.15781 18.2655 7.47185 18.8474 7.87748 19.3897C8.57099 18.6623 9.23833 17.9613 9.8795 17.3H9.89258ZM14.1976 19.3897C14.7864 18.5961 15.1135 17.7364 15.035 16.7444C15.035 16.5857 14.9827 16.3344 14.8911 16.2948C14.6425 16.1889 14.3808 16.0038 14.0929 16.2419C13.5564 16.6651 12.9545 16.9693 12.3264 17.1809C12.2741 17.1941 12.2217 17.2338 12.1563 17.2603C12.8367 17.9745 13.5171 18.6755 14.1976 19.3897Z" fill="white"/>
<path d="M7.34082 26.1219C7.34082 25.8177 7.56327 25.5928 7.85114 25.5928C8.12592 25.5928 8.36145 25.8441 8.34837 26.1351C8.34837 26.4261 8.11284 26.6642 7.83805 26.6642C7.56327 26.6642 7.34082 26.4261 7.34082 26.1219Z" fill="white"/>
<path d="M21.1191 22.7227C21.564 22.1937 21.9958 21.6911 22.4276 21.1753C22.5716 21.0033 22.7548 20.9107 22.9772 20.9901C23.1735 21.0562 23.3174 21.2017 23.3174 21.4133C23.3174 21.5721 23.2782 21.7704 23.1866 21.8895C22.6632 22.5376 22.1136 23.1857 21.564 23.8205C21.3547 24.0586 21.106 24.085 20.8574 23.8866C20.5826 23.6618 20.2948 23.437 20.0331 23.2121C19.7975 23.0005 19.7452 22.6831 19.9153 22.445C20.0854 22.1937 20.3733 22.1672 20.635 22.3656C20.792 22.4847 20.949 22.6169 21.1191 22.7492V22.7227Z" fill="white"/>
</g>
<defs>
<clipPath id="clip0_34_182">
<rect width="26" height="28" fill="white"/>
</clipPath>
</defs>
</svg>
