<svg width="23" height="30" viewBox="0 0 23 30" fill="none" xmlns="http://www.w3.org/2000/svg">
<path d="M21.6561 23.3745L17.6122 19.2988L17.4265 19.1262H17.3868C17.1614 18.9537 16.8962 18.8342 16.578 18.7412C15.9813 18.5819 15.3979 18.6483 14.8411 18.9271L13.197 19.9095L13.1572 19.883C13.1572 19.883 12.9318 19.7635 12.5473 19.4183C12.2423 19.1528 11.8711 18.7412 11.4335 18.2102C10.996 17.6792 10.5187 16.949 9.98833 16.0197C9.44472 15.1302 9.04696 14.3469 8.8083 13.7229C8.55638 13.0857 8.39727 12.5679 8.30446 12.1564C8.23816 11.851 8.19839 11.5722 8.18513 11.3333L9.51101 10.55C9.92204 10.311 10.2403 9.96583 10.4657 9.51445C10.7043 9.03651 10.7573 8.51875 10.638 8.05409L9.29887 2.34542V2.27904C9.17954 1.9737 9.03369 1.6949 8.83481 1.44266C8.58289 1.13731 8.26469 0.924892 7.86692 0.818684C7.34983 0.685924 6.83273 0.765583 6.35542 1.04438L2.23192 3.47388C1.94022 3.63319 1.67504 3.85888 1.43638 4.13768C1.19772 4.41647 1.02536 4.70854 0.89277 5.00062L0.852995 5.10683C0.852995 5.10683 0.7867 5.30596 0.707147 5.5582C0.587818 5.91666 0.508261 6.38132 0.455226 6.97874C0.402191 7.56288 0.388929 8.26651 0.441964 9.08962C0.495 9.91273 0.640849 10.8553 0.879508 11.9041C1.11817 12.9396 1.48942 14.1079 1.99326 15.3824C2.49709 16.6569 3.19981 18.0509 4.06163 19.5112C5.14886 21.3964 6.2626 22.9763 7.36308 24.1844C8.46356 25.3925 9.49775 26.3616 10.4391 27.0785C11.407 27.8087 12.2423 28.3265 12.9716 28.6451C13.6876 28.9505 14.2046 29.1496 14.5626 29.2425C14.7217 29.2824 14.8676 29.3089 14.9737 29.3355C15.0267 29.3355 15.0532 29.3487 15.0532 29.3355L15.1725 29.362C15.2786 29.362 15.3979 29.3753 15.5173 29.3753C15.7427 29.3753 15.9681 29.3487 16.1935 29.3089C16.5647 29.2425 16.8829 29.1098 17.1614 28.9372L21.2849 26.5342C21.8682 26.1891 22.213 25.6713 22.2925 25.0208V24.9677C22.3191 24.5694 22.2262 23.9587 21.6561 23.3613V23.3745Z" fill="#69C1FF"/>
</svg>
