<svg width="96" height="95" viewBox="0 0 96 95" fill="none" xmlns="http://www.w3.org/2000/svg">
<path d="M17.8265 95C17.085 94.5523 16.8751 93.8947 16.8891 93.0412C16.9171 88.1583 16.9031 83.2754 16.9031 78.3225C15.9237 78.1406 14.9584 77.9867 14.007 77.7629C5.8641 75.8041 0.0857451 68.5567 0.0157893 60.204C-0.012193 56.0906 0.0157893 51.9772 0.0157893 47.8638C0.0157893 46.7585 0.50548 46.1429 1.37293 46.1289C2.28236 46.1149 2.78604 46.7445 2.78604 47.8917C2.78604 51.8512 2.78604 55.8108 2.78604 59.7702C2.80003 68.6826 9.61373 75.5103 18.5401 75.5103C37.8619 75.5103 57.1837 75.5103 76.5195 75.5103C85.3759 75.5103 92.2036 68.6826 92.2176 59.8122C92.2315 49.7386 92.2315 39.651 92.2176 29.5773C92.2036 20.7629 85.3759 13.9212 76.5754 13.9212C57.1837 13.9212 37.8059 13.9072 18.4142 13.9212C9.62772 13.9212 2.80003 20.7769 2.78604 29.5913C2.78604 33.4529 2.78604 37.3144 2.78604 41.19C2.78604 41.4418 2.78604 41.6797 2.78604 41.9315C2.71608 42.757 2.19841 43.2887 1.44289 43.3026C0.645392 43.3306 0.0157893 42.771 0.0297805 41.9175C0.0577628 36.9367 -0.152105 31.9418 0.253639 27.0029C0.883241 19.07 7.93479 12.0744 15.8538 11.3748C19.7573 11.025 23.7028 11.1789 27.6204 11.1649C28.3339 11.1649 28.6977 10.9691 29.0195 10.2975C29.9989 8.19882 31.0762 6.14212 32.1115 4.07143C33.4687 1.34315 35.6793 0 38.7293 0C44.6056 0 50.4819 0 56.3582 0C59.3663 0 61.5629 1.34315 62.9201 4.02946C64.0114 6.1701 65.0887 8.32474 66.138 10.4934C66.3759 10.9831 66.6557 11.151 67.1874 11.151C70.1815 11.123 73.1896 11.1929 76.1837 11.123C86.3273 10.9131 93.8965 18.5663 94.8619 27.1289C94.8759 27.3107 94.9598 27.4786 95.0158 27.6465V61.785C94.9598 62.0228 94.8759 62.2467 94.8339 62.4985C93.5187 70.1097 89.1955 75.1325 81.8781 77.539C80.6888 77.9308 79.4156 78.0847 78.1285 78.3645C78.1285 78.6863 78.1285 79.0221 78.1285 79.3579C78.1285 83.919 78.1145 88.4941 78.1424 93.0552C78.1424 93.9087 77.9326 94.5523 77.205 95H65.1447C64.4031 94.5523 64.1933 93.8947 64.2072 93.0552C64.2492 90.3409 64.2212 87.6267 64.2212 84.8984V83.933H30.8243C30.8243 87.011 30.7963 90.0331 30.8383 93.0552C30.8383 93.9087 30.6285 94.5523 29.9009 95H17.8405H17.8265ZM75.3022 92.1738V78.3505H19.7433V92.1598H28.0261C28.0261 91.81 28.0261 91.5162 28.0261 91.2084C28.0261 88.4242 28.0261 85.6399 28.0261 82.8557C28.0261 81.5405 28.5018 81.0648 29.817 81.0648C41.6255 81.0648 53.4341 81.0648 65.2426 81.0648C66.4878 81.0648 66.9775 81.5545 66.9775 82.7997C66.9775 85.5839 66.9775 88.3682 66.9775 91.1524C66.9775 91.4742 66.9775 91.81 66.9775 92.1598H75.2743L75.3022 92.1738ZM57.9812 11.067H63.3398C62.2345 8.88439 61.2271 6.77172 60.0938 4.72901C59.3943 3.45582 58.1631 2.79823 56.708 2.79823C50.5938 2.77025 44.4657 2.78424 38.3516 2.79823C37.0364 2.79823 35.8332 3.28792 35.1756 4.42121C33.9304 6.56186 32.853 8.81443 31.6778 11.081H37.0504C37.0504 9.84978 37.0504 8.67452 37.0504 7.51325C37.0504 6.00221 37.4841 5.58247 38.9812 5.58247C44.6756 5.58247 50.356 5.58247 56.0504 5.58247C57.5754 5.58247 57.9952 5.98822 57.9952 7.48527C57.9952 8.68851 57.9952 9.87776 57.9952 11.081L57.9812 11.067ZM55.127 11.067V8.3947H39.9046V11.067H55.127Z" fill="white"/>
<path d="M47.4176 65.6046C38.4492 65.6046 29.4809 65.6186 20.5126 65.5766C19.3373 65.5766 18.0641 65.4367 16.9868 64.989C14.1746 63.8137 12.7335 61.5611 12.7335 58.5111C12.7055 49.2909 12.6775 40.0847 12.7335 30.8645C12.7615 26.7091 15.7416 23.8549 19.897 23.8549C38.2953 23.841 56.6937 23.841 75.0921 23.8549C79.2615 23.8549 82.1856 26.6812 82.2696 30.8505C82.3535 34.4323 82.2975 38.028 82.2836 41.6097C82.2836 42.715 81.7519 43.3027 80.8704 43.2887C80.003 43.2747 79.5133 42.6731 79.5133 41.5538C79.5133 38.1539 79.5133 34.7541 79.5133 31.3542C79.5133 28.2342 77.8903 26.6392 74.7563 26.6392C56.6098 26.6392 38.4492 26.6392 20.3027 26.6392C19.6871 26.6392 19.0575 26.6532 18.4699 26.8211C16.651 27.3248 15.5317 28.9058 15.5177 30.9485C15.5037 40.0987 15.5037 49.2489 15.5177 58.4131C15.5177 61.0295 17.1547 62.6664 19.785 62.8063C20.0649 62.8203 20.3447 62.8063 20.6245 62.8063C38.5612 62.8063 56.4978 62.8063 74.4345 62.8063C75.1341 62.8063 75.8756 62.7784 76.5472 62.5965C78.394 62.0928 79.5133 60.5118 79.5273 58.3991C79.5553 55.0273 79.5273 51.6554 79.5273 48.2835C79.5273 47.9477 79.5273 47.5979 79.5693 47.2622C79.6952 46.5206 80.1709 46.1149 80.9264 46.1289C81.6819 46.1289 82.1436 46.5346 82.2696 47.2901C82.3115 47.556 82.3115 47.8498 82.3115 48.1156C82.3115 51.4175 82.3115 54.7334 82.3115 58.0354C82.2975 62.6804 79.4433 65.5626 74.7983 65.5766C65.676 65.5906 56.5538 65.5766 47.4316 65.5766L47.4176 65.6046Z" fill="white"/>
<path d="M47.515 29.4234C56.5393 29.4234 65.5636 29.4234 74.5879 29.4234C76.4207 29.4234 76.7285 29.7452 76.7285 31.592C76.7285 40.3365 76.7285 49.095 76.7285 57.8395C76.7285 59.7003 76.3927 60.0361 74.4899 60.0361C56.4973 60.0361 38.5047 60.0361 20.512 60.0361C18.6092 60.0361 18.2734 59.7003 18.2734 57.8395C18.2734 49.095 18.2734 40.3365 18.2734 31.592C18.2734 29.7312 18.5812 29.4234 20.4141 29.4234C29.4384 29.4234 38.4627 29.4234 47.487 29.4234H47.515ZM73.9583 32.2916H21.1556V57.2518H22.149C39.0643 57.2518 55.9656 57.2518 72.8809 57.2658C73.7344 57.2658 73.9723 57.042 73.9723 56.1885C73.9443 48.5493 73.9583 40.9241 73.9583 33.285V32.2916Z" fill="white"/>
</svg>
