<svg width="26" height="26" viewBox="0 0 26 26" fill="none" xmlns="http://www.w3.org/2000/svg">
<g clip-path="url(#clip0_33_46)">
<path d="M26.0004 16.7803C25.8942 17.3281 25.8335 17.876 25.6818 18.4239C24.8172 21.6328 22.1322 24.0277 18.9163 24.4347C18.3399 24.513 17.7331 24.4973 17.1112 24.5286C17.1112 24.7008 17.1112 24.8886 17.1112 25.0921C17.096 25.6243 16.7472 26 16.2314 26C13.3493 26 10.4671 26 7.56979 26C7.28157 26 7.12988 25.8591 7.12988 25.6087C7.12988 25.3582 7.29674 25.2174 7.6153 25.2174C9.99686 25.2174 12.3633 25.2174 14.7448 25.2174C15.1999 25.2174 15.6398 25.2174 16.0949 25.2174C16.2769 25.2174 16.3528 25.1547 16.3528 24.9669C16.3528 24.3877 16.3528 24.3877 15.8218 24.2469C14.2746 23.8242 12.9549 23.0102 11.8778 21.7893C11.7565 21.6484 11.6351 21.6015 11.4683 21.6015C10.3002 21.6015 9.13222 21.6015 7.96419 21.6015C7.87317 21.6015 7.78216 21.6015 7.69114 21.6015C7.49394 21.5702 7.38776 21.4449 7.38776 21.2414C7.38776 21.0536 7.46361 20.8971 7.66081 20.8501C7.76699 20.8188 7.87317 20.8188 7.99453 20.8188C9.02603 20.8188 10.0575 20.8188 11.1497 20.8188C10.3002 19.4883 9.84517 18.0795 9.76932 16.5142C9.20806 16.5142 8.67714 16.5142 8.14622 16.5142C8.0552 16.5142 7.96419 16.5142 7.87317 16.5142C7.56979 16.5142 7.40293 16.3733 7.40293 16.1385C7.40293 15.888 7.58496 15.7315 7.88834 15.7315C8.41926 15.7315 8.95019 15.7315 9.48111 15.7315C9.57212 15.7315 9.64797 15.7315 9.76932 15.7315C9.86034 14.1818 10.3002 12.773 11.1649 11.4269C11.0435 11.4269 10.9525 11.4269 10.8615 11.4269C9.86034 11.4269 8.85917 11.4269 7.87317 11.4269C7.73665 11.4269 7.56979 11.3643 7.49394 11.2703C7.4181 11.1921 7.40293 11.0042 7.43327 10.8947C7.47877 10.7851 7.6153 10.7068 7.73665 10.6599C7.82767 10.6286 7.93385 10.6599 8.04004 10.6599C9.20806 10.6599 10.3761 10.6599 11.5441 10.6599C11.6503 10.6599 11.7868 10.6129 11.8475 10.5503C13.0459 9.20411 14.5173 8.32753 16.2617 7.95185C16.2921 7.95185 16.3072 7.95185 16.3528 7.92054C16.3528 7.82663 16.3528 7.73271 16.3528 7.63879C16.3528 6.95005 16.3528 6.2613 16.3528 5.57256C16.3528 5.47864 16.3528 5.40038 16.3679 5.30646C16.4134 5.08731 16.5651 4.97774 16.7775 5.00905C16.9899 5.04035 17.096 5.18123 17.1112 5.40038C17.1112 6.08912 17.1112 6.76221 17.1112 7.45095C17.1112 7.56052 17.1112 7.65444 17.1112 7.79532C17.2326 7.79532 17.3236 7.79532 17.4298 7.79532C21.4344 7.59183 24.7717 10.3468 25.697 13.994C25.8335 14.5106 25.8942 15.0271 25.9852 15.5593V16.8116L26.0004 16.7803ZM17.8697 23.7303C21.9198 23.7303 25.2419 20.3179 25.2267 16.1385C25.2267 11.9591 21.935 8.56233 17.8848 8.54667C13.8195 8.54667 10.5126 11.9434 10.5126 16.1228C10.5126 20.3022 13.8043 23.7303 17.8697 23.7303Z" fill="white"/>
<path d="M0 12.9922C0 9.03191 0 5.07164 0 1.09573C0 0.328718 0.318553 0 1.06184 0C6.06768 0 11.0583 0 16.0642 0C16.8075 0 17.126 0.328718 17.126 1.09573C17.126 1.86273 17.126 2.61409 17.126 3.3811C17.126 3.72547 16.853 3.91331 16.5799 3.77243C16.3979 3.67851 16.3524 3.50632 16.3676 3.30283C16.3676 2.58278 16.3676 1.84708 16.3676 1.12703C16.3676 0.897451 16.2563 0.777443 16.0338 0.767008C11.0432 0.767008 6.06768 0.767008 1.07701 0.767008C0.819137 0.767008 0.75846 0.845274 0.75846 1.11138C0.75846 9.03191 0.75846 16.9524 0.75846 24.873C0.75846 25.1391 0.819137 25.2173 1.07701 25.2173C2.53326 25.2173 3.9895 25.2173 5.44574 25.2173C5.55193 25.2173 5.65811 25.2173 5.74913 25.2486C5.93116 25.3113 6.02217 25.4521 6.007 25.64C5.99183 25.8435 5.88565 25.953 5.68845 25.9843C5.62777 25.9843 5.55193 25.9843 5.49125 25.9843C4.00467 25.9843 2.51809 25.9843 1.01634 25.9843C0.333722 25.9843 0 25.64 0 24.9356C0 20.9753 0 16.9837 0 12.9922Z" fill="white"/>
<path d="M5.59718 2.56712C5.59718 2.56712 5.64269 2.53581 5.6882 2.5045C5.87023 2.37928 6.05226 2.39493 6.18878 2.55146C6.34047 2.72365 6.35564 2.92714 6.18878 3.06802C5.94608 3.27151 5.94608 3.53762 5.94608 3.81937C5.94608 4.33593 5.94608 4.85249 5.94608 5.36904C5.94608 5.94821 5.56685 6.33954 5.02075 6.3552C4.38365 6.3552 3.73137 6.3552 3.09427 6.3552C2.56334 6.3552 2.18411 5.96387 2.16895 5.416C2.16895 4.74291 2.16895 4.06983 2.16895 3.39674C2.16895 2.83322 2.56334 2.45754 3.10944 2.44189C3.73137 2.44189 4.35331 2.44189 4.99042 2.44189C5.18762 2.44189 5.38481 2.52016 5.61235 2.58277L5.59718 2.56712ZM4.91457 3.2089C4.32297 3.2089 3.73137 3.2089 3.15494 3.2089C3.00325 3.2089 2.92741 3.28717 2.92741 3.4437C2.92741 4.06983 2.92741 4.69596 2.92741 5.32208C2.92741 5.47862 3.00325 5.54123 3.13977 5.54123C3.74654 5.54123 4.35331 5.54123 4.96008 5.54123C5.03592 5.54123 5.15728 5.43166 5.15728 5.36904C5.17245 4.97771 5.15728 4.57073 5.15728 4.1794L5.0966 4.14809C4.83872 4.42985 4.58085 4.69596 4.33814 4.97771C4.18645 5.13425 4.00442 5.21251 3.82239 5.07163C3.62519 4.9151 3.45833 4.72726 3.30664 4.53942C3.18528 4.38289 3.21562 4.19505 3.36731 4.03852C3.50383 3.89764 3.6707 3.89764 3.83756 4.00721C3.9134 4.05417 3.95891 4.11679 4.00442 4.14809C4.3078 3.83503 4.59602 3.53762 4.91457 3.2089Z" fill="white"/>
<path d="M5.59764 7.65443C5.59764 7.65443 5.65832 7.60747 5.70382 7.57616C5.88585 7.46659 6.06788 7.48224 6.20441 7.65443C6.34093 7.81096 6.3561 8.01445 6.20441 8.15533C5.94653 8.37448 5.94653 8.64058 5.94653 8.92234C5.94653 9.42324 5.94653 9.92415 5.94653 10.4094C5.94653 11.0355 5.5673 11.4269 4.9757 11.4269C4.36893 11.4269 3.76217 11.4269 3.1554 11.4269C2.5638 11.4269 2.18457 11.0512 2.18457 10.4407C2.18457 9.79892 2.18457 9.15714 2.18457 8.4997C2.18457 7.92053 2.54863 7.5292 3.12506 7.51355C3.76217 7.51355 4.39927 7.51355 5.02121 7.51355C5.20324 7.51355 5.40044 7.59182 5.61281 7.65443H5.59764ZM3.9897 9.21975C4.29309 8.90669 4.59647 8.59362 4.89986 8.29621C4.32343 8.29621 3.71666 8.29621 3.12506 8.29621C3.06438 8.29621 2.94303 8.43709 2.92786 8.4997C2.91269 9.14148 2.91269 9.76761 2.92786 10.4094C2.92786 10.4877 3.04921 10.6129 3.12506 10.6129C3.747 10.6285 4.35377 10.6129 4.9757 10.6129C5.03638 10.6129 5.1729 10.519 5.1729 10.4564C5.18807 10.0494 5.1729 9.64239 5.1729 9.25106L5.11223 9.21975C4.85435 9.50151 4.59647 9.76761 4.3386 10.0494C4.1869 10.2216 4.00487 10.2685 3.82284 10.1276C3.64081 9.97111 3.47395 9.79892 3.32226 9.61108C3.20091 9.45455 3.21608 9.26671 3.36777 9.11018C3.51946 8.95365 3.68632 8.95365 3.85318 9.06322C3.91386 9.11018 3.95937 9.17279 4.00487 9.2041L3.9897 9.21975Z" fill="white"/>
<path d="M5.94619 14.5731C5.94619 14.9175 5.94619 15.2462 5.94619 15.5906C5.94619 16.1072 5.55179 16.4985 5.06638 16.5141C4.39893 16.5141 3.73149 16.5141 3.06404 16.5141C2.57863 16.5141 2.1994 16.1385 2.18423 15.6532C2.16906 14.9332 2.16906 14.2131 2.18423 13.4774C2.18423 13.0235 2.54829 12.6478 3.00336 12.6321C3.71632 12.6165 4.42927 12.6008 5.12705 12.6321C5.5973 12.6478 5.93102 13.0548 5.94619 13.5244C5.94619 13.8688 5.94619 14.2288 5.94619 14.5731ZM5.18773 14.6045C5.18773 14.2914 5.18773 13.9783 5.18773 13.6653C5.18773 13.4931 5.12705 13.3992 4.96019 13.3992C4.36859 13.3992 3.76182 13.3992 3.17023 13.3992C3.01853 13.3992 2.94269 13.4774 2.94269 13.634C2.94269 14.2444 2.94269 14.8706 2.94269 15.481C2.94269 15.6532 3.01853 15.7315 3.1854 15.7315C3.77699 15.7315 4.36859 15.7315 4.96019 15.7315C5.12705 15.7315 5.2029 15.6689 5.2029 15.481C5.2029 15.1836 5.2029 14.8862 5.2029 14.5888L5.18773 14.6045Z" fill="white"/>
<path d="M5.94608 19.6448C5.94608 19.9735 5.94608 20.3022 5.94608 20.6466C5.94608 21.2101 5.58201 21.6171 5.03592 21.6171C4.38365 21.6171 3.73137 21.6171 3.0791 21.6171C2.54818 21.6171 2.18411 21.2414 2.16895 20.6936C2.16895 20.0205 2.16895 19.3317 2.16895 18.6586C2.16895 18.0951 2.56334 17.7195 3.1246 17.7195C3.74654 17.7195 4.36848 17.7195 5.00558 17.7195C5.58201 17.7195 5.94608 18.1108 5.96124 18.7056C5.96124 19.0187 5.96124 19.3317 5.96124 19.6448H5.94608ZM5.18762 19.6605C5.18762 19.363 5.18762 19.0656 5.18762 18.7682C5.18762 18.5804 5.14211 18.4865 4.94491 18.5021C4.35331 18.5021 3.76171 18.5021 3.17011 18.5021C2.98808 18.5021 2.92741 18.5804 2.92741 18.7526C2.92741 19.363 2.92741 19.9735 2.92741 20.584C2.92741 20.7562 3.00325 20.8344 3.17011 20.8344C3.76171 20.8344 4.35331 20.8344 4.94491 20.8344C5.11177 20.8344 5.18762 20.7562 5.18762 20.584C5.18762 20.2709 5.18762 19.9735 5.18762 19.6605Z" fill="white"/>
<path d="M11.1952 5.55688C12.2873 5.55688 13.3795 5.55688 14.4717 5.55688C14.7903 5.55688 14.9723 5.69776 14.9723 5.94822C14.9723 6.19867 14.7903 6.33955 14.4717 6.33955C12.2722 6.33955 10.0726 6.33955 7.87311 6.33955C7.56973 6.33955 7.3877 6.18301 7.3877 5.93256C7.3877 5.69776 7.55456 5.55688 7.87311 5.55688C8.98046 5.55688 10.0878 5.55688 11.1952 5.55688Z" fill="white"/>
<path d="M8.35784 15.0584C8.16064 15.0584 7.94827 15.0584 7.75107 15.0584C7.5387 15.0584 7.40218 14.9175 7.38701 14.6984C7.35667 14.4949 7.49319 14.2914 7.72073 14.2914C8.14547 14.2757 8.58538 14.2757 9.01011 14.2914C9.22248 14.2914 9.359 14.4949 9.34383 14.6984C9.3135 14.9175 9.19214 15.0428 8.97977 15.0584C8.78257 15.0584 8.57021 15.0584 8.37301 15.0584H8.35784Z" fill="white"/>
<path d="M8.35852 19.3787C8.55572 19.3787 8.76809 19.3787 8.96529 19.3787C9.19283 19.3787 9.32935 19.5509 9.32935 19.77C9.32935 19.9892 9.19283 20.1457 8.96529 20.1614C8.55572 20.1614 8.14616 20.1614 7.75176 20.1614C7.52422 20.1614 7.3877 19.9892 7.3877 19.77C7.3877 19.5509 7.52422 19.41 7.75176 19.3787C7.76693 19.3787 7.78209 19.3787 7.79726 19.3787C7.97929 19.3787 8.17649 19.3787 8.35852 19.3787Z" fill="white"/>
<path d="M8.34283 9.97111C8.14563 9.97111 7.94843 9.97111 7.7664 9.97111C7.53887 9.97111 7.40234 9.79892 7.40234 9.59543C7.40234 9.39194 7.53887 9.2041 7.7664 9.2041C8.17597 9.2041 8.58554 9.2041 9.01028 9.2041C9.22265 9.2041 9.37434 9.39194 9.37434 9.59543C9.37434 9.79892 9.22265 9.97111 9.01028 9.97111C8.79791 9.97111 8.58554 9.97111 8.37317 9.97111H8.34283Z" fill="white"/>
<path d="M8.37367 4.8838C8.19164 4.8838 8.00961 4.8838 7.81241 4.8838C7.53936 4.8838 7.3725 4.71161 7.38767 4.47681C7.38767 4.24201 7.55453 4.10114 7.81241 4.10114C8.17647 4.10114 8.5557 4.10114 8.91976 4.10114C9.17764 4.10114 9.32933 4.25767 9.3445 4.49247C9.3445 4.72726 9.19281 4.8838 8.93493 4.8838C8.7529 4.8838 8.57087 4.8838 8.37367 4.8838Z" fill="white"/>
<path d="M17.9301 10.3937C15.2148 10.3937 12.9243 12.3504 12.4237 15.0271C12.4085 15.1367 12.363 15.2775 12.3024 15.3715C12.1962 15.5123 12.0445 15.5593 11.8776 15.481C11.6956 15.3871 11.6197 15.2306 11.6652 15.0271C11.8169 14.1192 12.1355 13.2896 12.6361 12.5226C14.0771 10.2842 16.7014 9.18844 19.2347 9.76761C21.7679 10.3468 23.7248 12.4756 24.1192 15.1054C24.7411 19.1908 21.5404 22.8694 17.5357 22.6346C14.5929 22.4624 12.1658 20.224 11.6652 17.2029C11.6197 16.9368 11.7411 16.7333 11.9535 16.6863C12.1658 16.6394 12.3479 16.7959 12.4085 17.062C12.8333 19.2848 14.062 20.8188 16.1402 21.5545C19.4015 22.7128 22.9056 20.4588 23.3759 16.9368C23.8006 13.7592 21.6769 10.879 18.5824 10.4563C18.3549 10.425 18.1122 10.425 17.9453 10.4094L17.9301 10.3937Z" fill="white"/>
<path d="M18.2635 13.8061C18.2635 14.1035 18.2635 14.401 18.2635 14.6984C18.2635 14.8549 18.309 14.9332 18.4455 15.0114C18.8551 15.2462 19.0674 15.6062 19.0978 16.0915C19.0978 16.2011 19.1433 16.3263 19.1888 16.4359C19.4315 16.8742 19.6894 17.2968 19.9472 17.7351C20.2051 18.189 20.1141 18.5334 19.6894 18.7995C19.5377 18.8934 19.386 18.9873 19.2343 19.0813C18.8702 19.2848 18.5213 19.2065 18.2938 18.8308C18.0208 18.3925 17.7781 17.9386 17.505 17.4846C17.4443 17.3907 17.3533 17.2968 17.2623 17.2342C16.8527 16.9681 16.6252 16.5924 16.6404 16.0758C16.6404 15.5749 16.8831 15.2149 17.3078 14.9958C17.4595 14.9175 17.505 14.8236 17.505 14.6514C17.505 14.0566 17.505 13.4618 17.505 12.8669C17.505 12.5695 17.6415 12.413 17.8691 12.3973C18.1118 12.3973 18.2635 12.5539 18.2635 12.8669C18.2635 13.18 18.2635 13.4774 18.2635 13.7905V13.8061ZM17.8691 16.6237C18.1269 16.6237 18.3241 16.4046 18.3393 16.1385C18.3393 15.8567 18.1269 15.6376 17.8539 15.6532C17.596 15.6532 17.3988 15.8724 17.3988 16.1385C17.3988 16.4046 17.6112 16.6237 17.8691 16.6237ZM19.295 18.1421C19.0826 17.782 18.8854 17.4533 18.6882 17.109C18.5517 17.2029 18.4303 17.2655 18.309 17.3438C18.5062 17.6881 18.7034 18.0168 18.9006 18.3769C19.0371 18.2986 19.1433 18.236 19.2798 18.1421H19.295Z" fill="white"/>
<path d="M22.3138 16.5141C22.1014 16.5141 21.9346 16.342 21.9346 16.1228C21.9346 15.9193 22.1014 15.7471 22.2986 15.7315C22.511 15.7315 22.693 15.9037 22.693 16.1072C22.693 16.3263 22.5262 16.4985 22.3138 16.5141Z" fill="white"/>
<path d="M18.2331 11.5364C18.2331 11.7556 18.0662 11.9434 17.8538 11.9434C17.6566 11.9434 17.4898 11.7556 17.4746 11.5521C17.4746 11.3329 17.6415 11.1607 17.8538 11.1607C18.0662 11.1607 18.2179 11.3173 18.2179 11.5364H18.2331Z" fill="white"/>
<path d="M17.8845 20.3022C18.0969 20.3022 18.2638 20.5057 18.2638 20.7092C18.2638 20.9127 18.0817 21.0849 17.8845 21.0849C17.6722 21.0849 17.5053 20.9127 17.5205 20.6779C17.5205 20.4744 17.7025 20.3022 17.8997 20.3022H17.8845Z" fill="white"/>
<path d="M13.819 16.1072C13.819 16.3263 13.6521 16.5141 13.4398 16.5141C13.2426 16.5141 13.0605 16.342 13.0605 16.1385C13.0605 15.9193 13.2274 15.7315 13.4398 15.7315C13.6521 15.7315 13.8038 15.9037 13.819 16.1072Z" fill="white"/>
<path d="M20.099 11.7712C20.3113 11.7712 20.463 11.9277 20.4782 12.1469C20.4782 12.366 20.3265 12.5539 20.099 12.5539C19.9018 12.5539 19.7197 12.3973 19.7197 12.1782C19.7197 11.959 19.8866 11.7712 20.099 11.7712Z" fill="white"/>
<path d="M15.6087 20.4588C15.3963 20.4588 15.2598 20.2709 15.2598 20.0518C15.2598 19.8326 15.457 19.6604 15.6693 19.6761C15.8665 19.6918 16.0334 19.8796 16.0182 20.0831C16.0182 20.3022 15.821 20.4744 15.6087 20.4588Z" fill="white"/>
<path d="M20.0843 19.6761C20.2967 19.6761 20.4635 19.8483 20.4635 20.0674C20.4635 20.2866 20.3118 20.4431 20.0995 20.4587C19.8871 20.4587 19.7051 20.2866 19.7051 20.0674C19.7051 19.8639 19.8719 19.6917 20.0691 19.6761H20.0843Z" fill="white"/>
<path d="M21.7074 14.2288C21.5102 14.2288 21.3281 14.0566 21.3281 13.8531C21.3281 13.6339 21.495 13.4618 21.7225 13.4618C21.9349 13.4618 22.0866 13.6183 22.1018 13.8374C22.1018 14.0566 21.9349 14.2444 21.7225 14.2444L21.7074 14.2288Z" fill="white"/>
<path d="M15.639 11.7712C15.8514 11.7712 16.0334 11.959 16.0182 12.1782C16.0182 12.3817 15.8362 12.5539 15.639 12.5539C15.4266 12.5539 15.2598 12.366 15.2598 12.1469C15.2598 11.9277 15.4266 11.7712 15.639 11.7712Z" fill="white"/>
<path d="M14.4109 18.4082C14.4109 18.6273 14.2137 18.7995 14.0013 18.7839C13.7889 18.7839 13.6372 18.596 13.6524 18.3925C13.6524 18.1734 13.8344 18.0012 14.0468 18.0169C14.244 18.0169 14.4109 18.2047 14.4109 18.4238V18.4082Z" fill="white"/>
<path d="M22.0866 18.3925C22.0866 18.6117 21.9349 18.7682 21.7225 18.7682C21.5102 18.7682 21.3281 18.596 21.3281 18.3769C21.3281 18.1734 21.5102 18.0012 21.7074 17.9855C21.9197 17.9855 22.0866 18.1577 22.0866 18.3769V18.3925Z" fill="white"/>
<path d="M14.0311 13.4618C14.2434 13.4618 14.4255 13.6496 14.4255 13.8531C14.4255 14.0566 14.2434 14.2288 14.0462 14.2288C13.8339 14.2288 13.667 14.0566 13.667 13.8218C13.667 13.6026 13.8339 13.4461 14.0462 13.4461L14.0311 13.4618Z" fill="white"/>
</g>
<defs>
<clipPath id="clip0_33_46">
<rect width="26" height="26" fill="white"/>
</clipPath>
</defs>
</svg>
